<mxfile host="app.diagrams.net" modified="2022-04-28T15:00:39.565Z" agent="5.0 (Windows NT 10.0; Win64; x64) AppleWebKit/537.36 (KHTML, like Gecko) Chrome/100.0.4896.127 Safari/537.36 Edg/100.0.1185.50" etag="75fhs5ImrbjIy6-nvu43" version="17.4.6" type="github">
  <diagram id="WM0ftz-tsclDHK0SuxE-" name="Page-1">
    <mxGraphModel dx="1038" dy="579" grid="1" gridSize="10" guides="1" tooltips="1" connect="1" arrows="1" fold="1" page="1" pageScale="1" pageWidth="850" pageHeight="1100" math="0" shadow="0">
      <root>
        <mxCell id="0" />
        <mxCell id="1" parent="0" />
        <mxCell id="KnMiPz-0FVzWkqn_KFAG-4" value="" style="edgeStyle=orthogonalEdgeStyle;rounded=0;orthogonalLoop=1;jettySize=auto;html=1;" edge="1" parent="1" source="KnMiPz-0FVzWkqn_KFAG-2" target="KnMiPz-0FVzWkqn_KFAG-3">
          <mxGeometry relative="1" as="geometry" />
        </mxCell>
        <mxCell id="KnMiPz-0FVzWkqn_KFAG-2" value="start" style="rounded=1;whiteSpace=wrap;html=1;" vertex="1" parent="1">
          <mxGeometry x="210" y="40" width="90" height="20" as="geometry" />
        </mxCell>
        <mxCell id="KnMiPz-0FVzWkqn_KFAG-6" value="" style="edgeStyle=orthogonalEdgeStyle;rounded=0;orthogonalLoop=1;jettySize=auto;html=1;" edge="1" parent="1" source="KnMiPz-0FVzWkqn_KFAG-3" target="KnMiPz-0FVzWkqn_KFAG-5">
          <mxGeometry relative="1" as="geometry" />
        </mxCell>
        <mxCell id="KnMiPz-0FVzWkqn_KFAG-3" value="INTERVAL of 100 mill sec&amp;nbsp;" style="rhombus;whiteSpace=wrap;html=1;" vertex="1" parent="1">
          <mxGeometry x="215" y="100" width="80" height="80" as="geometry" />
        </mxCell>
        <mxCell id="KnMiPz-0FVzWkqn_KFAG-8" value="" style="edgeStyle=orthogonalEdgeStyle;rounded=0;orthogonalLoop=1;jettySize=auto;html=1;" edge="1" parent="1" source="KnMiPz-0FVzWkqn_KFAG-5" target="KnMiPz-0FVzWkqn_KFAG-7">
          <mxGeometry relative="1" as="geometry" />
        </mxCell>
        <mxCell id="KnMiPz-0FVzWkqn_KFAG-5" value="IF card is building and has health" style="rhombus;whiteSpace=wrap;html=1;" vertex="1" parent="1">
          <mxGeometry x="215" y="220" width="80" height="80" as="geometry" />
        </mxCell>
        <mxCell id="KnMiPz-0FVzWkqn_KFAG-10" value="" style="edgeStyle=orthogonalEdgeStyle;rounded=0;orthogonalLoop=1;jettySize=auto;html=1;" edge="1" parent="1" source="KnMiPz-0FVzWkqn_KFAG-7" target="KnMiPz-0FVzWkqn_KFAG-9">
          <mxGeometry relative="1" as="geometry" />
        </mxCell>
        <mxCell id="KnMiPz-0FVzWkqn_KFAG-7" value="reduce the health by hp reduce ratio" style="whiteSpace=wrap;html=1;" vertex="1" parent="1">
          <mxGeometry x="195" y="340" width="120" height="60" as="geometry" />
        </mxCell>
        <mxCell id="KnMiPz-0FVzWkqn_KFAG-12" value="" style="edgeStyle=orthogonalEdgeStyle;rounded=0;orthogonalLoop=1;jettySize=auto;html=1;" edge="1" parent="1" source="KnMiPz-0FVzWkqn_KFAG-9" target="KnMiPz-0FVzWkqn_KFAG-11">
          <mxGeometry relative="1" as="geometry">
            <Array as="points">
              <mxPoint x="360" y="460" />
              <mxPoint x="360" y="60" />
            </Array>
          </mxGeometry>
        </mxCell>
        <mxCell id="KnMiPz-0FVzWkqn_KFAG-9" value="reduce the life line by 0.1" style="whiteSpace=wrap;html=1;" vertex="1" parent="1">
          <mxGeometry x="195" y="430" width="120" height="60" as="geometry" />
        </mxCell>
        <mxCell id="KnMiPz-0FVzWkqn_KFAG-14" value="" style="edgeStyle=orthogonalEdgeStyle;rounded=0;orthogonalLoop=1;jettySize=auto;html=1;" edge="1" parent="1" source="KnMiPz-0FVzWkqn_KFAG-11" target="KnMiPz-0FVzWkqn_KFAG-13">
          <mxGeometry relative="1" as="geometry" />
        </mxCell>
        <mxCell id="KnMiPz-0FVzWkqn_KFAG-11" value="IF life line or health is less 0" style="rhombus;whiteSpace=wrap;html=1;" vertex="1" parent="1">
          <mxGeometry x="385" y="20" width="80" height="80" as="geometry" />
        </mxCell>
        <mxCell id="KnMiPz-0FVzWkqn_KFAG-16" value="" style="edgeStyle=orthogonalEdgeStyle;rounded=0;orthogonalLoop=1;jettySize=auto;html=1;" edge="1" parent="1" source="KnMiPz-0FVzWkqn_KFAG-13" target="KnMiPz-0FVzWkqn_KFAG-15">
          <mxGeometry relative="1" as="geometry" />
        </mxCell>
        <mxCell id="KnMiPz-0FVzWkqn_KFAG-13" value="IF card is spell" style="rhombus;whiteSpace=wrap;html=1;" vertex="1" parent="1">
          <mxGeometry x="385" y="140" width="80" height="80" as="geometry" />
        </mxCell>
        <mxCell id="KnMiPz-0FVzWkqn_KFAG-18" value="" style="edgeStyle=orthogonalEdgeStyle;rounded=0;orthogonalLoop=1;jettySize=auto;html=1;" edge="1" parent="1" source="KnMiPz-0FVzWkqn_KFAG-15" target="KnMiPz-0FVzWkqn_KFAG-17">
          <mxGeometry relative="1" as="geometry" />
        </mxCell>
        <mxCell id="KnMiPz-0FVzWkqn_KFAG-15" value="IF attacked agent not empty" style="rhombus;whiteSpace=wrap;html=1;" vertex="1" parent="1">
          <mxGeometry x="385" y="250" width="80" height="80" as="geometry" />
        </mxCell>
        <mxCell id="KnMiPz-0FVzWkqn_KFAG-20" value="" style="edgeStyle=orthogonalEdgeStyle;rounded=0;orthogonalLoop=1;jettySize=auto;html=1;" edge="1" parent="1" source="KnMiPz-0FVzWkqn_KFAG-17" target="KnMiPz-0FVzWkqn_KFAG-19">
          <mxGeometry relative="1" as="geometry" />
        </mxCell>
        <mxCell id="KnMiPz-0FVzWkqn_KFAG-17" value="call&amp;nbsp;doAfterSpellAction" style="rounded=1;whiteSpace=wrap;html=1;fillColor=#f8cecc;gradientColor=#ea6b66;strokeColor=#b85450;" vertex="1" parent="1">
          <mxGeometry x="365" y="360" width="120" height="60" as="geometry" />
        </mxCell>
        <mxCell id="KnMiPz-0FVzWkqn_KFAG-22" style="edgeStyle=orthogonalEdgeStyle;rounded=0;orthogonalLoop=1;jettySize=auto;html=1;entryX=0;entryY=0.5;entryDx=0;entryDy=0;" edge="1" parent="1" source="KnMiPz-0FVzWkqn_KFAG-19" target="KnMiPz-0FVzWkqn_KFAG-21">
          <mxGeometry relative="1" as="geometry" />
        </mxCell>
        <mxCell id="KnMiPz-0FVzWkqn_KFAG-19" value="reset health 0" style="rounded=0;whiteSpace=wrap;html=1;" vertex="1" parent="1">
          <mxGeometry x="365" y="450" width="120" height="60" as="geometry" />
        </mxCell>
        <mxCell id="KnMiPz-0FVzWkqn_KFAG-24" value="" style="edgeStyle=orthogonalEdgeStyle;rounded=0;orthogonalLoop=1;jettySize=auto;html=1;" edge="1" parent="1" source="KnMiPz-0FVzWkqn_KFAG-21" target="KnMiPz-0FVzWkqn_KFAG-23">
          <mxGeometry relative="1" as="geometry" />
        </mxCell>
        <mxCell id="KnMiPz-0FVzWkqn_KFAG-21" value="call&amp;nbsp;death effect&amp;nbsp;" style="rounded=1;whiteSpace=wrap;html=1;fillColor=#f8cecc;gradientColor=#ea6b66;strokeColor=#b85450;" vertex="1" parent="1">
          <mxGeometry x="550" y="30" width="120" height="60" as="geometry" />
        </mxCell>
        <mxCell id="KnMiPz-0FVzWkqn_KFAG-26" value="" style="edgeStyle=orthogonalEdgeStyle;rounded=0;orthogonalLoop=1;jettySize=auto;html=1;" edge="1" parent="1" source="KnMiPz-0FVzWkqn_KFAG-23" target="KnMiPz-0FVzWkqn_KFAG-25">
          <mxGeometry relative="1" as="geometry" />
        </mxCell>
        <mxCell id="KnMiPz-0FVzWkqn_KFAG-23" value="card do spawn" style="rhombus;whiteSpace=wrap;html=1;" vertex="1" parent="1">
          <mxGeometry x="570" y="130" width="80" height="80" as="geometry" />
        </mxCell>
        <mxCell id="KnMiPz-0FVzWkqn_KFAG-30" value="" style="edgeStyle=orthogonalEdgeStyle;rounded=0;orthogonalLoop=1;jettySize=auto;html=1;" edge="1" parent="1" source="KnMiPz-0FVzWkqn_KFAG-25" target="KnMiPz-0FVzWkqn_KFAG-29">
          <mxGeometry relative="1" as="geometry" />
        </mxCell>
        <mxCell id="KnMiPz-0FVzWkqn_KFAG-25" value="clear the intervla" style="whiteSpace=wrap;html=1;" vertex="1" parent="1">
          <mxGeometry x="550" y="240" width="120" height="60" as="geometry" />
        </mxCell>
        <mxCell id="KnMiPz-0FVzWkqn_KFAG-32" value="" style="edgeStyle=orthogonalEdgeStyle;rounded=0;orthogonalLoop=1;jettySize=auto;html=1;" edge="1" parent="1" source="KnMiPz-0FVzWkqn_KFAG-29" target="KnMiPz-0FVzWkqn_KFAG-31">
          <mxGeometry relative="1" as="geometry" />
        </mxCell>
        <mxCell id="KnMiPz-0FVzWkqn_KFAG-29" value="clear the attacking interval" style="whiteSpace=wrap;html=1;" vertex="1" parent="1">
          <mxGeometry x="550" y="350" width="120" height="60" as="geometry" />
        </mxCell>
        <mxCell id="KnMiPz-0FVzWkqn_KFAG-34" value="" style="edgeStyle=orthogonalEdgeStyle;rounded=0;orthogonalLoop=1;jettySize=auto;html=1;" edge="1" parent="1" source="KnMiPz-0FVzWkqn_KFAG-31" target="KnMiPz-0FVzWkqn_KFAG-33">
          <mxGeometry relative="1" as="geometry">
            <Array as="points">
              <mxPoint x="700" y="480" />
              <mxPoint x="700" y="70" />
            </Array>
          </mxGeometry>
        </mxCell>
        <mxCell id="KnMiPz-0FVzWkqn_KFAG-31" value="IF card has life line interval" style="rhombus;whiteSpace=wrap;html=1;" vertex="1" parent="1">
          <mxGeometry x="570" y="440" width="80" height="80" as="geometry" />
        </mxCell>
        <mxCell id="KnMiPz-0FVzWkqn_KFAG-36" value="" style="edgeStyle=orthogonalEdgeStyle;rounded=0;orthogonalLoop=1;jettySize=auto;html=1;" edge="1" parent="1" source="KnMiPz-0FVzWkqn_KFAG-33" target="KnMiPz-0FVzWkqn_KFAG-35">
          <mxGeometry relative="1" as="geometry" />
        </mxCell>
        <mxCell id="KnMiPz-0FVzWkqn_KFAG-33" value="clear the interval" style="whiteSpace=wrap;html=1;" vertex="1" parent="1">
          <mxGeometry x="710" y="40" width="120" height="60" as="geometry" />
        </mxCell>
        <mxCell id="KnMiPz-0FVzWkqn_KFAG-37" style="edgeStyle=orthogonalEdgeStyle;rounded=0;orthogonalLoop=1;jettySize=auto;html=1;" edge="1" parent="1" source="KnMiPz-0FVzWkqn_KFAG-35" target="KnMiPz-0FVzWkqn_KFAG-3">
          <mxGeometry relative="1" as="geometry">
            <Array as="points">
              <mxPoint x="780" y="530" />
              <mxPoint x="340" y="530" />
              <mxPoint x="340" y="140" />
            </Array>
          </mxGeometry>
        </mxCell>
        <mxCell id="KnMiPz-0FVzWkqn_KFAG-38" value="Next interval" style="edgeLabel;html=1;align=center;verticalAlign=middle;resizable=0;points=[];" vertex="1" connectable="0" parent="KnMiPz-0FVzWkqn_KFAG-37">
          <mxGeometry x="-0.7985" y="1" relative="1" as="geometry">
            <mxPoint as="offset" />
          </mxGeometry>
        </mxCell>
        <mxCell id="KnMiPz-0FVzWkqn_KFAG-35" value="call reset card" style="rounded=1;whiteSpace=wrap;html=1;fillColor=#f8cecc;gradientColor=#ea6b66;strokeColor=#b85450;" vertex="1" parent="1">
          <mxGeometry x="720" y="140" width="120" height="60" as="geometry" />
        </mxCell>
      </root>
    </mxGraphModel>
  </diagram>
</mxfile>
